<svg width="24" height="24" viewBox="0 0 24 24" fill="none" xmlns="http://www.w3.org/2000/svg">
<path d="M12 3C9.794 3 8 4.794 8 7C8 9.206 9.794 11 12 11C14.206 11 16 9.206 16 7C16 4.794 14.206 3 12 3ZM12 14C8.859 14 3 15.545 3 18.5V20C3 20.552 3.448 21 4 21H12.4922C12.9272 21 13.3453 20.8265 13.6523 20.5195L17.9199 16.252C18.2589 15.913 18.1413 15.3382 17.6973 15.1562C15.8363 14.3923 13.578 14 12 14ZM22.207 15C22.0792 15 21.951 15.049 21.8535 15.1465L20.8535 16.1465L22.8535 18.1465L23.8535 17.1465C24.0485 16.9515 24.0485 16.6345 23.8535 16.4395L22.5605 15.1465C22.4625 15.049 22.3349 15 22.207 15ZM20.1465 16.8535L15 22V24H17L22.1465 18.8535L20.1465 16.8535Z" fill="white"/>
</svg>
