<svg id="Layer_1" height="512" viewBox="0 0 512 512" width="512" xmlns="http://www.w3.org/2000/svg" data-name="Layer 1"><g fill-rule="evenodd"><path d="m256.082.109c141.384 0 256 114.587 256 255.963s-114.616 256.035-256 256.035-255.999-114.658-255.999-256.035 114.623-255.963 255.999-255.963z" fill="#4caf50"/><path d="m315.312 343a25.777 25.777 0 0 0 23.556-7.424l25.855-25.838a5.607 5.607 0 0 0 0-7.889l-46.433-46.428a5.582 5.582 0 0 0 -7.872 0l-24.677 24.679a11.419 11.419 0 0 1 -7.1 3.3 11.288 11.288 0 0 1 -7.488-2.09 296.242 296.242 0 0 1 -37.153-31.832 295.057 295.057 0 0 1 -31.811-37.13 11.2 11.2 0 0 1 -2.094-7.5 11.343 11.343 0 0 1 3.3-7.084l24.677-24.683a5.6 5.6 0 0 0 0-7.883l-46.431-46.428a5.579 5.579 0 0 0 -7.872 0l-25.856 25.841a25.913 25.913 0 0 0 -7.429 23.565c3.449 19.5 12.412 38.768 22.7 55.57a292.284 292.284 0 0 0 42.837 53.725 293.726 293.726 0 0 0 53.716 42.837c16.805 10.275 36.086 19.243 55.574 22.687zm-198.5 15.027a19.45 19.45 0 0 0 13.709 33.184h251.125a19.452 19.452 0 0 0 0-38.9 34.247 34.247 0 0 1 -19.222-5.888 35.078 35.078 0 0 1 -8.52-8.187l10.79-10.808a19.659 19.659 0 0 0 6.132 6.572 19.2 19.2 0 0 0 10.82 3.305 34.453 34.453 0 0 1 0 68.9h-251.127a34.453 34.453 0 0 1 0-68.9 7.5 7.5 0 1 1 0 15 19.316 19.316 0 0 0 -13.709 5.72zm183.877-185.753 64.064-64.068a7.5 7.5 0 1 1 10.614 10.605l-64.067 64.067 49.117 2.4a7.479 7.479 0 1 1 -.707 14.942l-66.01-3.226a7.493 7.493 0 0 1 -7.134-7.117l-3.214-66.03a7.482 7.482 0 0 1 14.948-.7z" fill="#fff"/></g></svg>