<svg id="Layer_1" height="512" viewBox="0 0 512 512" width="512" xmlns="http://www.w3.org/2000/svg" data-name="Layer 1"><g fill-rule="evenodd"><path d="m256.085.063c141.383 0 256 114.658 256 256.035s-114.617 255.963-256 255.963-256.001-114.587-256.001-255.961 114.616-256.037 256.001-256.037z" fill="#f44336"/><path d="m258.78 271.724a346.017 346.017 0 0 1 78.132 9.107c22.659 5.463 46.283 14.087 65.489 27.525a31.258 31.258 0 0 1 13.683 26.283v45.85h-.548a7.281 7.281 0 0 1 -1.56 2.309 7 7 0 0 1 -2.282 1.53v.575h-82.973v-.575a7.091 7.091 0 0 1 -4.358-6.525v-41.23a12.9 12.9 0 0 0 -10.787-12.725 348.719 348.719 0 0 0 -57.508-4.407 348.715 348.715 0 0 0 -57.507 4.407 12.9 12.9 0 0 0 -10.756 11.811v44.827h-.548a7.284 7.284 0 0 1 -1.557 2.314 7.028 7.028 0 0 1 -2.28 1.53v.575h-82.979v-.575a7.1 7.1 0 0 1 -4.357-6.525v-43.166a31.142 31.142 0 0 1 13.652-26.283c19.216-13.45 42.84-22.073 65.51-27.548 26.246-6.339 53.845-9.119 80.822-9.119h2.712zm30.135-128.293a8.109 8.109 0 1 1 .635-16.206l61.7 2.52a8.1 8.1 0 0 1 7.784 8.417l-2.52 61.7a8.109 8.109 0 1 1 -16.206-.631l1.732-42.413-72.751 72.426a20.588 20.588 0 0 1 -28.965-.024l-64.493-64.489a8.135 8.135 0 0 1 11.5-11.506l64.492 64.494a4.23 4.23 0 0 0 6.022.018l72.928-72.6-41.864-1.707zm-87.615 193.145v.012l.008-.012z" fill="#fff"/></g></svg>