<svg id="Layer_1" height="512" viewBox="0 0 512 512" width="512" xmlns="http://www.w3.org/2000/svg" data-name="Layer 1"><circle cx="256" cy="256" fill="#6aaf50" r="256" transform="matrix(.707 -.707 .707 .707 -106.039 256)"/><path d="m379.55 135.4v72a8 8 0 0 1 -16 0v-52.7l-81.8 81.8a7.862 7.862 0 0 1 -11.311 0 7.991 7.991 0 0 1 0-11.3l81.791-81.8h-52.67a8 8 0 1 1 0-16h71.991a8.01 8.01 0 0 1 8 8zm-18.94 174.6c-6.18-5-12.76-10.2-19.08-14.8a37.5 37.5 0 0 0 -43.02-1.4c-20.009 12.8-47.49 0-65.85-18.4s-31.18-45.8-18.42-65.8a37.5 37.5 0 0 0 -1.39-43.1c-4.649-6.3-9.84-12.9-14.75-19a38.082 38.082 0 0 0 -59.08-.7c-5.17 6.2-10.09 12.7-14.61 19.3a36.837 36.837 0 0 0 -6.68 22.8c1.33 41.4 27.03 91 68.75 132.7s91.32 67.4 132.68 68.7c.461 0 .92.1 1.37.1a36.782 36.782 0 0 0 21.43-6.7c6.571-4.6 13.06-9.5 19.28-14.7a38.006 38.006 0 0 0 -.63-59z" fill="#fff" fill-rule="evenodd"/></svg>